<?xml version="1.0" encoding="utf-8"?>
<!-- Generator: Adobe Illustrator 24.1.2, SVG Export Plug-In . SVG Version: 6.00 Build 0)  -->
<svg version="1.1" baseProfile="tiny" id="Layer_1" xmlns="http://www.w3.org/2000/svg" xmlns:xlink="http://www.w3.org/1999/xlink"
	 x="0px" y="0px" viewBox="0 0 10000 10000" overflow="visible" xml:space="preserve">
<path fill="none" stroke="#594E4A" stroke-width="400" d="M5521.67,6310.86c0,0-252.83,1230.98,828.33,1281.37"/>
<path fill="none" stroke="#594E4A" stroke-width="400" d="M4485.97,6304.33c0,0,252.83,1230.98-828.33,1281.37"/>
<path fill="none" stroke="#7D9C7C" stroke-width="400" stroke-miterlimit="10" d="M7005,4448.69
	c1.22-546.04-440.02-989.91-986.06-991.93h-36.68c-5.32-24.07-7.29-48.76-5.87-73.37c-14.94-550.87-473.62-985.32-1024.48-970.38
	c-529.86,14.37-956.01,440.52-970.38,970.38c0,20.54,0,41.82,0,62.36v8.8h-49.89c-547.02,29.79-966.31,497.38-936.53,1044.4
	c27.52,505.39,431.14,909.01,936.53,936.53h48.42v16.14c0,7.34,0,13.94,0,21.28c14.94,550.87,473.62,985.32,1024.48,970.38
	c529.86-14.37,956.01-440.52,970.38-970.38c0-7.34,0-13.94,0-21.28v-8.07c12.94-5.6,27.01-8.11,41.09-7.34
	C6561.47,5435.81,7003.78,4994.16,7005,4448.69z"/>
<circle fill="none" stroke="#712370" stroke-width="400" cx="4999.5" cy="4999.5" r="3388.5"/>
</svg>
